<svg width="63" height="40" viewBox="0 0 63 40" fill="none" xmlns="http://www.w3.org/2000/svg">
<rect x="2" y="1" width="59" height="37" rx="1" fill="url(#paint0_linear_184_2)"/>
<mask id="mask0_184_2" style="mask-type:alpha" maskUnits="userSpaceOnUse" x="0" y="0" width="63" height="40">
<path d="M6.71526 26.0399V22.1759L15.5633 9.51993H20.9113V21.8959H23.2073V26.0399H20.9113V29.6799H16.1233V26.0399H6.71526ZM16.4593 14.7839L11.7553 21.8959H16.4593V14.7839ZM34.7365 25.6199V29.6799H32.3005C30.5645 29.6799 29.2111 29.2599 28.2405 28.4199C27.2698 27.5613 26.7845 26.1706 26.7845 24.2479V18.0319H24.8805V14.0559H26.7845V10.2479H31.5725V14.0559H34.7085V18.0319H31.5725V24.3039C31.5725 24.7706 31.6845 25.1066 31.9085 25.3119C32.1325 25.5173 32.5058 25.6199 33.0285 25.6199H34.7365ZM47.0075 13.8879C48.7995 13.8879 50.2368 14.4853 51.3195 15.6799C52.4021 16.8559 52.9435 18.4799 52.9435 20.5519V29.6799H48.1835V21.1959C48.1835 20.1506 47.9128 19.3386 47.3715 18.7599C46.8301 18.1813 46.1021 17.8919 45.1875 17.8919C44.2728 17.8919 43.5448 18.1813 43.0035 18.7599C42.4621 19.3386 42.1915 20.1506 42.1915 21.1959V29.6799H37.4035V8.95993H42.1915V16.1559C42.6768 15.4653 43.3395 14.9146 44.1795 14.5039C45.0195 14.0933 45.9621 13.8879 47.0075 13.8879Z" fill="#1DCAD3"/>
<path d="M1 9V3C1 1.89543 1.89543 1 3 1H15" stroke="#10BDC6" stroke-width="2" stroke-linecap="round"/>
<path d="M61.5 31L61.5 37C61.5 38.1046 60.6046 39 59.5 39L47.5 39" stroke="#10BDC6" stroke-width="2" stroke-linecap="round"/>
</mask>
<g mask="url(#mask0_184_2)">
<rect x="-1" y="-1" width="64" height="42" fill="url(#paint1_linear_184_2)"/>
</g>
<defs>
<linearGradient id="paint0_linear_184_2" x1="124.5" y1="-40.5" x2="-51" y2="72" gradientUnits="userSpaceOnUse">
<stop offset="0.393099" stop-color="#1DCAD3" stop-opacity="0"/>
<stop offset="0.485" stop-color="#1DCAD3" stop-opacity="0.15"/>
<stop offset="0.635088" stop-color="#1DCAD3" stop-opacity="0"/>
<stop offset="0.680939" stop-color="#1DCAD3" stop-opacity="0"/>
</linearGradient>
<linearGradient id="paint1_linear_184_2" x1="-5.5" y1="-1" x2="66" y2="44.5" gradientUnits="userSpaceOnUse">
<stop stop-color="#1DCAD3"/>
<stop offset="1" stop-color="#1B6EE9"/>
</linearGradient>
</defs>
</svg>
